# xmcd
#
# Track frame offsets: 
#        150
#        14565
#        35940
#        51240
#        68640
#        83640
#        100365
#        121785
#        129435
#        145785
#        163935
#        181785
#
# Disc length: 3126 seconds
#
# Revision: 0
# Processed by: cddbd v1.5.2PL0 Copyright (c) Steve Scherf et al.
# Submitted via: ExactAudioCopy v0.95a4
#
DISCID=a20c340c
DTITLE=Big Blind - Dressed to win
DYEAR=2007
DGENRE=Blues
TTITLE0=Ease my mind
TTITLE1=Mr Right
TTITLE2=Natural high
TTITLE3=(Please don't) Strike me blind
TTITLE4=In my own hands
TTITLE5=Now I cry
TTITLE6=Dressed to win
TTITLE7=Bill's balls
TTITLE8=Leave this place
TTITLE9=Voodoo queen
TTITLE10=Lil' blue thang
TTITLE11=I'm outta here
EXTD=
EXTT0=
EXTT1=
EXTT2=
EXTT3=
EXTT4=
EXTT5=
EXTT6=
EXTT7=
EXTT8=
EXTT9=
EXTT10=
EXTT11=
PLAYORDER=
